<svg width="382" height="92" viewBox="0 0 382 92" fill="none" xmlns="http://www.w3.org/2000/svg">
<path d="M24.75 13.4119L92.8411 49L24.75 84.5881V13.4119Z" stroke="#55D2FF" stroke-width="2"/>
<path d="M50.744 68.72C47 68.72 43.688 67.832 40.808 66.056C37.928 64.232 35.672 61.832 34.04 58.856C32.408 55.88 31.592 52.64 31.592 49.136C31.592 45.584 32.384 42.344 33.968 39.416C35.552 36.488 37.784 34.16 40.664 32.432C43.544 30.656 46.88 29.768 50.672 29.768C54.368 29.768 57.584 30.608 60.32 32.288C63.104 33.92 65.168 36.128 66.512 38.912L60.32 40.856C59.36 39.08 58.016 37.712 56.288 36.752C54.56 35.744 52.64 35.24 50.528 35.24C48.224 35.24 46.112 35.84 44.192 37.04C42.32 38.24 40.832 39.896 39.728 42.008C38.624 44.072 38.072 46.448 38.072 49.136C38.072 51.776 38.624 54.176 39.728 56.336C40.88 58.448 42.392 60.128 44.264 61.376C46.184 62.624 48.296 63.248 50.6 63.248C52.088 63.248 53.504 62.984 54.848 62.456C56.24 61.928 57.44 61.232 58.448 60.368C59.504 59.456 60.224 58.472 60.608 57.416L66.8 59.288C65.696 62.024 63.68 64.28 60.752 66.056C57.872 67.832 54.536 68.72 50.744 68.72ZM90.0436 68.72C86.2996 68.72 82.9876 67.832 80.1076 66.056C77.2756 64.232 75.0676 61.856 73.4836 58.928C71.8996 55.952 71.1076 52.736 71.1076 49.28C71.1076 45.776 71.8996 42.56 73.4836 39.632C75.1156 36.656 77.3476 34.28 80.1796 32.504C83.0596 30.68 86.3476 29.768 90.0436 29.768C93.7876 29.768 97.0756 30.68 99.9076 32.504C102.788 34.28 105.02 36.656 106.604 39.632C108.236 42.56 109.052 45.776 109.052 49.28C109.052 52.736 108.236 55.952 106.604 58.928C105.02 61.856 102.812 64.232 99.9796 66.056C97.1476 67.832 93.8356 68.72 90.0436 68.72ZM77.5876 49.352C77.5876 51.944 78.1396 54.296 79.2436 56.408C80.3956 58.52 81.9076 60.2 83.7796 61.448C85.6516 62.648 87.7396 63.248 90.0436 63.248C92.3476 63.248 94.4356 62.624 96.3076 61.376C98.2276 60.128 99.7396 58.448 100.844 56.336C101.996 54.176 102.572 51.8 102.572 49.208C102.572 46.616 101.996 44.264 100.844 42.152C99.7396 40.04 98.2276 38.36 96.3076 37.112C94.4356 35.864 92.3476 35.24 90.0436 35.24C87.7396 35.24 85.6516 35.888 83.7796 37.184C81.9076 38.432 80.3956 40.112 79.2436 42.224C78.1396 44.336 77.5876 46.712 77.5876 49.352ZM149.345 68H143.009V46.976C143.009 42.992 142.385 40.088 141.137 38.264C139.937 36.392 138.089 35.456 135.593 35.456C133.865 35.456 132.137 35.888 130.409 36.752C128.729 37.616 127.217 38.792 125.873 40.28C124.577 41.72 123.641 43.4 123.065 45.32V68H116.729V30.416H122.489V38.48C123.977 35.84 126.113 33.728 128.897 32.144C131.729 30.56 134.801 29.768 138.113 29.768C141.041 29.768 143.297 30.464 144.881 31.856C146.513 33.2 147.665 35.072 148.337 37.472C149.009 39.824 149.345 42.512 149.345 45.536V68ZM178.286 66.128C177.518 66.464 176.294 66.944 174.614 67.568C172.982 68.192 171.158 68.504 169.142 68.504C166.838 68.504 164.846 67.88 163.166 66.632C161.486 65.336 160.646 63.344 160.646 60.656V35.384H155.534V30.416H160.646V17.888H166.982V30.416H175.406V35.384H166.982V58.712C167.078 60.056 167.534 61.064 168.35 61.736C169.166 62.36 170.126 62.672 171.23 62.672C172.478 62.672 173.63 62.456 174.686 62.024C175.742 61.592 176.438 61.28 176.774 61.088L178.286 66.128ZM184.159 23.36V15.44H190.495V23.36H184.159ZM184.159 68V30.416H190.495V68H184.159ZM200.249 51.224V45.464H221.489V51.224H200.249ZM238.686 28.832V68H232.206V16.88H237.678L268.926 56.84V16.952H275.406V68H269.502L238.686 28.832ZM302.603 68.72C298.859 68.72 295.547 67.832 292.667 66.056C289.787 64.28 287.531 61.904 285.899 58.928C284.267 55.952 283.451 52.712 283.451 49.208C283.451 45.656 284.267 42.416 285.899 39.488C287.531 36.56 289.787 34.208 292.667 32.432C295.595 30.656 298.931 29.768 302.675 29.768C306.467 29.768 309.755 30.68 312.539 32.504C315.371 34.28 317.555 36.632 319.091 39.56C320.675 42.44 321.467 45.56 321.467 48.92C321.467 49.976 321.419 50.792 321.323 51.368H290.147C290.339 53.816 291.011 56 292.163 57.92C293.363 59.792 294.899 61.28 296.771 62.384C298.643 63.44 300.659 63.968 302.819 63.968C305.123 63.968 307.283 63.392 309.299 62.24C311.363 61.088 312.779 59.576 313.547 57.704L319.019 59.216C317.819 62 315.731 64.28 312.755 66.056C309.779 67.832 306.395 68.72 302.603 68.72ZM289.931 46.976H315.563C315.371 44.528 314.675 42.368 313.475 40.496C312.275 38.624 310.739 37.16 308.867 36.104C306.995 35.048 304.931 34.52 302.675 34.52C300.467 34.52 298.427 35.048 296.555 36.104C294.683 37.16 293.147 38.624 291.947 40.496C290.795 42.368 290.123 44.528 289.931 46.976ZM374.614 30.416H380.734L364.75 68H359.206L351.934 50.288L344.734 68H339.19L323.206 30.416H329.254L342.214 61.736L348.262 46.328L341.926 30.488H347.47L351.934 42.44L356.398 30.488H361.942L355.678 46.328L361.726 61.736L374.614 30.416Z" fill="#5C6F76"/>
</svg>
